<svg width="30" height="55" viewBox="0 0 30 55" fill="none" xmlns="http://www.w3.org/2000/svg">
<path d="M2.05172 54.6596C2.32108 54.6598 2.58782 54.6068 2.83672 54.5038C3.08561 54.4009 3.31178 54.2499 3.5023 54.0594L28.7802 28.7802C29.1647 28.3956 29.3807 27.874 29.3807 27.3303C29.3807 26.7865 29.1647 26.2649 28.7802 25.8804L3.5023 0.601053C3.3119 0.410559 3.08584 0.259434 2.83703 0.156305C2.58823 0.0531759 2.32154 6.35409e-05 2.0522 5.69777e-08C1.78287 -6.34269e-05 1.51616 0.0529235 1.2673 0.155935C1.01844 0.258946 0.792309 0.409966 0.601815 0.600369C0.411322 0.790773 0.260199 1.01683 0.157071 1.26564C0.0539418 1.51445 0.000826232 1.78114 0.000762761 2.05047C0.000699289 2.31981 0.0536877 2.58652 0.156699 2.83538C0.259711 3.08423 0.410731 3.31036 0.601135 3.50086L24.4298 27.3296L0.601135 51.1583C0.314141 51.4451 0.118672 51.8106 0.0394652 52.2085C-0.0397416 52.6065 0.000869807 53.0189 0.156165 53.3938C0.311461 53.7686 0.574462 54.089 0.911882 54.3143C1.2493 54.5397 1.64598 54.6598 2.05172 54.6596V54.6596Z" fill="#DB1A1A"/>
</svg>
