<svg width="31" height="56" viewBox="0 0 31 56" fill="none" xmlns="http://www.w3.org/2000/svg">
<path d="M28.2617 55.5234C27.9923 55.5235 27.7256 55.4706 27.4767 55.3676C27.2278 55.2646 27.0016 55.1136 26.8111 54.9232L1.53318 29.6439C1.14872 29.2593 0.932739 28.7378 0.932739 28.194C0.932739 27.6502 1.14872 27.1287 1.53318 26.7441L26.8111 1.46482C27.0015 1.27433 27.2276 1.1232 27.4764 1.02007C27.7252 0.916945 27.9919 0.863833 28.2612 0.86377C28.5305 0.863706 28.7973 0.916693 29.0461 1.0197C29.295 1.12272 29.5211 1.27374 29.7116 1.46414C29.9021 1.65454 30.0532 1.8806 30.1563 2.12941C30.2595 2.37822 30.3126 2.64491 30.3127 2.91424C30.3127 3.18358 30.2597 3.45029 30.1567 3.69915C30.0537 3.948 29.9027 4.17413 29.7123 4.36463L5.88357 28.1933L29.7123 52.022C29.9993 52.3089 30.1947 52.6744 30.274 53.0723C30.3532 53.4702 30.3125 53.8827 30.1573 54.2576C30.002 54.6324 29.739 54.9528 29.4015 55.1781C29.0641 55.4034 28.6674 55.5236 28.2617 55.5234V55.5234Z" fill="#DB1A1A"/>
</svg>
