<svg width="70" height="70" viewBox="0 0 70 70" fill="none" xmlns="http://www.w3.org/2000/svg">
<path d="M60.9476 21.1314L35.4138 12.0118C35.1463 11.9163 34.8535 11.9163 34.586 12.0118L9.05239 21.1314C8.55829 21.3079 8.23031 21.7785 8.23591 22.3032C8.24138 22.8279 8.57921 23.2915 9.077 23.4575L19.4187 26.9057V38.9233C19.4187 39.4718 19.7817 39.9541 20.309 40.1058L34.6598 44.2351C34.771 44.2669 34.8854 44.2831 35 44.2831C35.1145 44.2831 35.2291 44.2671 35.3401 44.2351L39.8588 42.9349C40.5119 42.7469 40.889 42.0652 40.7011 41.4121C40.5132 40.759 39.8319 40.3817 39.1784 40.5698L35 41.7721L21.8796 37.9969V27.7262L34.6107 31.971C34.8634 32.0552 35.1366 32.0554 35.3891 31.971L37.675 31.2089C37.6753 31.2089 37.6754 31.2088 37.6757 31.2087L39.6011 30.5668C40.2457 30.3518 40.5942 29.655 40.3792 29.0102C40.1641 28.3656 39.4674 28.017 38.8226 28.2321L35 29.5066L23.5585 25.6918L13.2364 22.2502L35 14.4771L56.7635 22.2502L48.9618 24.8515C48.9617 24.8515 48.9617 24.8515 48.9617 24.8515L47.9988 25.1725L47.205 25.4372H47.2049L45.9741 25.8475C45.3293 26.0624 44.981 26.7593 45.196 27.404C45.411 28.0487 46.1076 28.3966 46.7526 28.1821L48.1205 27.726V37.9967L46.5868 38.4381C45.9336 38.6261 45.5566 39.3077 45.7444 39.9608C45.8997 40.5003 46.3917 40.8514 46.9265 40.8514C47.039 40.8514 47.1536 40.836 47.2672 40.8032L49.6911 40.1056C50.2183 39.954 50.5814 39.4715 50.5814 38.9231V26.9056L60.9231 23.4574C61.421 23.2914 61.7587 22.8279 61.7642 22.3031C61.7696 21.7783 61.4417 21.3079 60.9476 21.1314Z" fill="#DB1A1A"/>
<path d="M44.4627 28.0254C44.4619 27.997 44.4611 27.9684 44.4583 27.94C44.4563 27.9193 44.4527 27.8992 44.4497 27.8789C44.4468 27.8597 44.4448 27.8407 44.4411 27.8219C44.4367 27.7992 44.4307 27.777 44.4251 27.7549C44.4209 27.7385 44.4172 27.7219 44.4124 27.7056C44.4058 27.6838 44.398 27.6627 44.3904 27.6414C44.3844 27.6248 44.3789 27.6083 44.3722 27.592C44.3643 27.5726 44.3551 27.554 44.3464 27.5352C44.338 27.5175 44.3301 27.4996 44.3208 27.4822C44.312 27.4656 44.3021 27.4497 44.2926 27.4337C44.2817 27.4153 44.271 27.3967 44.2591 27.3786C44.2492 27.3636 44.2381 27.3492 44.2273 27.3345C44.2144 27.317 44.202 27.2992 44.1883 27.2822C44.1751 27.2661 44.1608 27.2509 44.1469 27.2356C44.134 27.2214 44.1219 27.2069 44.1085 27.1932C44.0866 27.1711 44.0634 27.1504 44.0398 27.1301C44.0333 27.1243 44.0275 27.1182 44.0208 27.1126L44.0178 27.11C44.0171 27.1094 44.0163 27.1087 44.0155 27.108L35.7869 20.2619C35.2648 19.8272 34.4889 19.8983 34.054 20.4207C33.6194 20.9431 33.6906 21.719 34.213 22.1536L42.0033 28.6352V50.4495C40.6377 50.73 39.6077 51.9411 39.6077 53.3884V55.0598C39.6077 56.7141 40.9535 58.0598 42.6077 58.0598H44.2792C45.9335 58.0598 47.2793 56.7139 47.2793 55.0598V53.3884C47.2793 51.7963 46.0325 50.4906 44.4642 50.3947V28.0644C44.4642 28.0641 44.4642 28.0637 44.4642 28.0633V28.0582C44.4643 28.0473 44.463 28.0365 44.4627 28.0254ZM44.8183 53.3884V55.0598C44.8183 55.3571 44.5765 55.5989 44.2792 55.5989H42.6077C42.3103 55.5989 42.0686 55.357 42.0686 55.0598V53.3884C42.0686 53.091 42.3105 52.8493 42.6077 52.8493H44.2792C44.5766 52.8493 44.8183 53.091 44.8183 53.3884Z" fill="#DB1A1A"/>
</svg>
