<svg width="139" height="139" viewBox="0 0 139 139" fill="none" xmlns="http://www.w3.org/2000/svg">
<path d="M52.5838 41.4937C52.9729 40.7149 53.5871 40.071 54.3466 39.6455C55.1061 39.22 55.976 39.0326 56.8433 39.1075C57.7107 39.1824 58.5355 39.5162 59.2108 40.0656C59.8862 40.615 60.3808 41.3547 60.6306 42.1887L70.5127 75.136L78.6572 58.8687C79.018 58.1473 79.5725 57.5406 80.2587 57.1166C80.9449 56.6925 81.7355 56.468 82.5421 56.468C83.3487 56.468 84.1394 56.6925 84.8256 57.1166C85.5117 57.5406 86.0663 58.1473 86.4271 58.8687L93.9038 73.8438H120.173C124.084 65.7805 126.068 56.9189 125.969 47.9577C125.798 31.0958 112.27 17.375 95.8123 17.375C82.7566 17.375 74.0935 25.3946 69.5 31.2207C64.9174 25.3865 56.2434 17.375 43.1877 17.375C26.7304 17.375 13.2023 31.0958 13.0313 47.9577C12.9611 53.7804 13.7786 59.5798 15.4556 65.1562H40.7525L52.5838 41.4937Z" fill="#DB1A1A"/>
<path d="M87.3338 80.1314L82.5312 70.5262L73.3849 88.8189C73.024 89.5401 72.4694 90.1466 71.7832 90.5705C71.0971 90.9944 70.3065 91.2189 69.4999 91.2188C69.3787 91.2188 69.2538 91.2133 69.1253 91.2025C68.2559 91.1304 67.4283 90.7981 66.7504 90.249C66.0725 89.6999 65.5756 88.9593 65.3245 88.1239L55.4425 55.1765L47.298 71.4439C46.9389 72.1614 46.3881 72.7655 45.7067 73.1891C45.0253 73.6127 44.2398 73.8393 43.4375 73.8438H18.8274C21.3612 79.145 24.734 84.3629 28.9456 89.4976C34.0414 95.7091 43.28 105.64 64.6159 120.124C66.0548 121.11 67.7583 121.638 69.5027 121.638C71.247 121.638 72.9505 121.11 74.3894 120.124C95.7253 105.64 104.964 95.7091 110.06 89.4976C111.895 87.2637 113.617 84.9386 115.218 82.5313H91.2187C90.4122 82.5314 89.6216 82.3069 88.9354 81.883C88.2493 81.4591 87.6947 80.8526 87.3338 80.1314Z" fill="#DB1A1A"/>
<path d="M125.969 73.8438H120.173C118.728 76.853 117.073 79.7562 115.218 82.5312H125.969C127.121 82.5312 128.226 82.0736 129.04 81.259C129.855 80.4444 130.313 79.3395 130.313 78.1875C130.313 77.0355 129.855 75.9306 129.04 75.116C128.226 74.3014 127.121 73.8438 125.969 73.8438Z" fill="#DB1A1A"/>
<path d="M13.0312 65.1562C11.8792 65.1562 10.7744 65.6139 9.95975 66.4285C9.14514 67.2431 8.6875 68.348 8.6875 69.5C8.6875 70.652 9.14514 71.7569 9.95975 72.5715C10.7744 73.3861 11.8792 73.8438 13.0312 73.8438H18.8274C17.4841 71.0379 16.3569 68.1336 15.4556 65.1562H13.0312Z" fill="#DB1A1A"/>
</svg>
